<svg xmlns="http://www.w3.org/2000/svg" version="1.1" viewBox="128.33 58.33 443.34 443.33">
 <path d="m301.67 105c-69.957 0-126.67 56.711-126.67 126.67 0 69.953 56.711 126.66 126.67 126.66 34.984 0 66.617-14.152 89.566-37.098 22.945-22.949 37.098-54.582 37.098-89.566 0-69.957-56.711-126.67-126.66-126.67zm-173.34 126.67c0-95.73 77.605-173.34 173.34-173.34s173.33 77.605 173.33 173.34c0 39.441-13.195 75.832-35.379 104.95l125.21 125.21c9.1133 9.1094 9.1133 23.883 0 32.996s-23.887 9.1133-32.996 0l-125.21-125.21c-29.121 22.184-65.512 35.379-104.95 35.379-95.73 0-173.34-77.602-173.34-173.33z" fill-rule="evenodd"/>
</svg>